<?xml version="1.0" encoding="UTF-8"?>
<svg xmlns="http://www.w3.org/2000/svg" viewBox="0 0 880 640" font-family="ui-sans-serif, -apple-system, system-ui, sans-serif">
  <defs>
    <linearGradient id="qwen" x1="0%" y1="0%" x2="100%" y2="0%">
      <stop offset="0%" stop-color="#7c3aed"/>
      <stop offset="100%" stop-color="#a78bfa"/>
    </linearGradient>
    <linearGradient id="gemma" x1="0%" y1="0%" x2="100%" y2="0%">
      <stop offset="0%" stop-color="#ea580c"/>
      <stop offset="100%" stop-color="#fb923c"/>
    </linearGradient>
    <linearGradient id="gptoss" x1="0%" y1="0%" x2="100%" y2="0%">
      <stop offset="0%" stop-color="#16a34a"/>
      <stop offset="100%" stop-color="#4ade80"/>
    </linearGradient>
    <linearGradient id="mistral" x1="0%" y1="0%" x2="100%" y2="0%">
      <stop offset="0%" stop-color="#9ca3af"/>
      <stop offset="100%" stop-color="#d1d5db"/>
    </linearGradient>
  </defs>

  <!-- Background -->
  <rect width="880" height="640" fill="#0b0b0d"/>

  <!-- Title -->
  <text x="40" y="48" font-size="22" font-weight="700" fill="#f5f5f5">Burnless compression filter — 7 models, 3 families</text>
  <text x="40" y="72" font-size="14" fill="#a1a1aa">N=50 Portuguese samples · tiktoken cl100k_base · higher ratio = more compression</text>

  <!-- Axis grid -->
  <g stroke="#27272a" stroke-width="1">
    <line x1="240" y1="120" x2="240" y2="540"/>
    <line x1="360" y1="120" x2="360" y2="540"/>
    <line x1="480" y1="120" x2="480" y2="540"/>
    <line x1="600" y1="120" x2="600" y2="540"/>
    <line x1="720" y1="120" x2="720" y2="540"/>
    <line x1="840" y1="120" x2="840" y2="540"/>
  </g>
  <g font-size="11" fill="#71717a" text-anchor="middle">
    <text x="240" y="562">1.0x</text>
    <text x="360" y="562">1.5x</text>
    <text x="480" y="562">2.0x</text>
    <text x="600" y="562">2.5x</text>
    <text x="720" y="562">3.0x</text>
    <text x="840" y="562">3.5x</text>
  </g>

  <!-- Bars -->
  <!-- ratio mapping: x = 240 + (ratio - 1.0) * 240 -->

  <!-- qwen2.5:7b (local) — 2.50x -->
  <text x="230" y="155" text-anchor="end" font-size="14" fill="#f5f5f5" font-weight="600">qwen2.5:7b-instruct</text>
  <text x="230" y="172" text-anchor="end" font-size="11" fill="#71717a">7.6B · local · Qwen</text>
  <rect x="240" y="142" width="360" height="34" fill="url(#qwen)" rx="3"/>
  <text x="608" y="165" font-size="14" fill="#f5f5f5" font-weight="700">2.50×</text>

  <!-- qwen3-next:80b (cloud) — 2.29x -->
  <text x="230" y="215" text-anchor="end" font-size="14" fill="#f5f5f5" font-weight="600">qwen3-next:80b-cloud</text>
  <text x="230" y="232" text-anchor="end" font-size="11" fill="#71717a">80B · cloud · Qwen (N=38)</text>
  <rect x="240" y="202" width="309" height="34" fill="url(#qwen)" rx="3" opacity="0.85"/>
  <text x="557" y="225" font-size="14" fill="#f5f5f5" font-weight="700">2.29×</text>

  <!-- gemma3:4b (cloud) — 2.00x -->
  <text x="230" y="275" text-anchor="end" font-size="14" fill="#f5f5f5" font-weight="600">gemma3:4b-cloud</text>
  <text x="230" y="292" text-anchor="end" font-size="11" fill="#71717a">4B · cloud · Gemma</text>
  <rect x="240" y="262" width="240" height="34" fill="url(#gemma)" rx="3"/>
  <text x="488" y="285" font-size="14" fill="#f5f5f5" font-weight="700">2.00×</text>

  <!-- gpt-oss:120b (cloud) — 1.90x -->
  <text x="230" y="335" text-anchor="end" font-size="14" fill="#f5f5f5" font-weight="600">gpt-oss:120b-cloud</text>
  <text x="230" y="352" text-anchor="end" font-size="11" fill="#71717a">120B · cloud · gpt-oss</text>
  <rect x="240" y="322" width="216" height="34" fill="url(#gptoss)" rx="3"/>
  <text x="464" y="345" font-size="14" fill="#f5f5f5" font-weight="700">1.90×</text>

  <!-- gemma3:27b (cloud) — 1.90x -->
  <text x="230" y="395" text-anchor="end" font-size="14" fill="#f5f5f5" font-weight="600">gemma3:27b-cloud</text>
  <text x="230" y="412" text-anchor="end" font-size="11" fill="#71717a">27B · cloud · Gemma</text>
  <rect x="240" y="382" width="216" height="34" fill="url(#gemma)" rx="3"/>
  <text x="464" y="405" font-size="14" fill="#f5f5f5" font-weight="700">1.90×</text>

  <!-- gemma3:12b (cloud) — 1.80x -->
  <text x="230" y="455" text-anchor="end" font-size="14" fill="#f5f5f5" font-weight="600">gemma3:12b-cloud</text>
  <text x="230" y="472" text-anchor="end" font-size="11" fill="#71717a">12B · cloud · Gemma</text>
  <rect x="240" y="442" width="192" height="34" fill="url(#gemma)" rx="3" opacity="0.85"/>
  <text x="440" y="465" font-size="14" fill="#f5f5f5" font-weight="700">1.80×</text>

  <!-- ministral-3:8b (cloud) — 1.30x ⚠ -->
  <text x="230" y="515" text-anchor="end" font-size="14" fill="#fca5a5" font-weight="600">ministral-3:8b-cloud ⚠</text>
  <text x="230" y="532" text-anchor="end" font-size="11" fill="#71717a">8B · cloud · Mistral · 9/50 passthrough</text>
  <rect x="240" y="502" width="72" height="34" fill="url(#mistral)" rx="3" stroke="#ef4444" stroke-width="1"/>
  <text x="320" y="525" font-size="14" fill="#fca5a5" font-weight="700">1.30×</text>

  <!-- Family legend -->
  <g transform="translate(40, 590)">
    <rect width="14" height="14" fill="url(#qwen)" rx="2"/>
    <text x="22" y="11" font-size="12" fill="#a1a1aa">Qwen</text>
    <rect x="80" width="14" height="14" fill="url(#gemma)" rx="2"/>
    <text x="102" y="11" font-size="12" fill="#a1a1aa">Gemma</text>
    <rect x="170" width="14" height="14" fill="url(#gptoss)" rx="2"/>
    <text x="192" y="11" font-size="12" fill="#a1a1aa">gpt-oss</text>
    <rect x="250" width="14" height="14" fill="url(#mistral)" rx="2" stroke="#ef4444" stroke-width="1"/>
    <text x="272" y="11" font-size="12" fill="#a1a1aa">Mistral (unreliable JSON)</text>
    <text x="450" y="11" font-size="11" fill="#52525b" font-style="italic">family + size predicts behavior; Mistral fails JSON schema 18% of samples</text>
  </g>
</svg>
